<mxfile host="app.diagrams.net" modified="2022-07-18T16:07:36.148Z" agent="5.0 (Windows NT 10.0; Win64; x64) AppleWebKit/537.36 (KHTML, like Gecko) Chrome/102.0.5005.115 Safari/537.36 OPR/88.0.4412.85" etag="m0nlxtVJC_btYr4cahJN" version="20.1.1" type="github">
  <diagram id="C5RBs43oDa-KdzZeNtuy" name="Page-1">
    <mxGraphModel dx="1381" dy="764" grid="1" gridSize="10" guides="1" tooltips="1" connect="1" arrows="1" fold="1" page="1" pageScale="1" pageWidth="827" pageHeight="1169" math="0" shadow="0">
      <root>
        <mxCell id="WIyWlLk6GJQsqaUBKTNV-0" />
        <mxCell id="WIyWlLk6GJQsqaUBKTNV-1" parent="WIyWlLk6GJQsqaUBKTNV-0" />
        <mxCell id="HWxZlMLOFgajQkxqQ1TN-1" value="" style="rounded=0;whiteSpace=wrap;html=1;" vertex="1" parent="WIyWlLk6GJQsqaUBKTNV-1">
          <mxGeometry x="260" y="250" width="160" height="60" as="geometry" />
        </mxCell>
        <mxCell id="HWxZlMLOFgajQkxqQ1TN-2" value="&lt;h1&gt;College&lt;/h1&gt;&lt;div&gt;&lt;br&gt;&lt;/div&gt;" style="text;html=1;strokeColor=none;fillColor=none;spacing=5;spacingTop=-20;whiteSpace=wrap;overflow=hidden;rounded=0;" vertex="1" parent="WIyWlLk6GJQsqaUBKTNV-1">
          <mxGeometry x="290" y="260" width="120" height="40" as="geometry" />
        </mxCell>
        <mxCell id="HWxZlMLOFgajQkxqQ1TN-3" value="" style="rounded=1;whiteSpace=wrap;html=1;arcSize=50;" vertex="1" parent="WIyWlLk6GJQsqaUBKTNV-1">
          <mxGeometry x="10" y="250" width="120" height="60" as="geometry" />
        </mxCell>
        <mxCell id="HWxZlMLOFgajQkxqQ1TN-4" value="" style="rounded=1;whiteSpace=wrap;html=1;arcSize=50;" vertex="1" parent="WIyWlLk6GJQsqaUBKTNV-1">
          <mxGeometry x="280" y="70" width="120" height="60" as="geometry" />
        </mxCell>
        <mxCell id="HWxZlMLOFgajQkxqQ1TN-5" value="" style="rounded=1;whiteSpace=wrap;html=1;arcSize=50;" vertex="1" parent="WIyWlLk6GJQsqaUBKTNV-1">
          <mxGeometry x="280" y="420" width="120" height="60" as="geometry" />
        </mxCell>
        <mxCell id="HWxZlMLOFgajQkxqQ1TN-7" value="&lt;font style=&quot;font-size: 18px;&quot;&gt;Classes&lt;/font&gt;" style="text;html=1;strokeColor=none;fillColor=none;align=center;verticalAlign=middle;whiteSpace=wrap;rounded=0;" vertex="1" parent="WIyWlLk6GJQsqaUBKTNV-1">
          <mxGeometry x="310" y="85" width="60" height="30" as="geometry" />
        </mxCell>
        <mxCell id="HWxZlMLOFgajQkxqQ1TN-8" value="&lt;span style=&quot;font-size: 18px;&quot;&gt;Work Office&lt;/span&gt;" style="text;html=1;strokeColor=none;fillColor=none;align=center;verticalAlign=middle;whiteSpace=wrap;rounded=0;" vertex="1" parent="WIyWlLk6GJQsqaUBKTNV-1">
          <mxGeometry x="310" y="435" width="60" height="30" as="geometry" />
        </mxCell>
        <mxCell id="HWxZlMLOFgajQkxqQ1TN-9" value="&lt;span style=&quot;font-size: 18px;&quot;&gt;Departmant&lt;/span&gt;" style="text;html=1;strokeColor=none;fillColor=none;align=center;verticalAlign=middle;whiteSpace=wrap;rounded=0;" vertex="1" parent="WIyWlLk6GJQsqaUBKTNV-1">
          <mxGeometry x="40" y="265" width="60" height="30" as="geometry" />
        </mxCell>
        <mxCell id="HWxZlMLOFgajQkxqQ1TN-11" value="" style="rhombus;whiteSpace=wrap;html=1;fontSize=18;fillColor=#000000;" vertex="1" parent="WIyWlLk6GJQsqaUBKTNV-1">
          <mxGeometry x="240" y="270" width="20" height="20" as="geometry" />
        </mxCell>
        <mxCell id="HWxZlMLOFgajQkxqQ1TN-19" value="" style="endArrow=none;html=1;rounded=0;fontSize=18;entryX=0;entryY=0.5;entryDx=0;entryDy=0;" edge="1" parent="WIyWlLk6GJQsqaUBKTNV-1" target="HWxZlMLOFgajQkxqQ1TN-11">
          <mxGeometry width="50" height="50" relative="1" as="geometry">
            <mxPoint x="130" y="279" as="sourcePoint" />
            <mxPoint x="200" y="279" as="targetPoint" />
          </mxGeometry>
        </mxCell>
        <mxCell id="HWxZlMLOFgajQkxqQ1TN-25" value="" style="endArrow=none;html=1;rounded=0;fontSize=18;entryX=0.5;entryY=1;entryDx=0;entryDy=0;startArrow=none;" edge="1" parent="WIyWlLk6GJQsqaUBKTNV-1" source="HWxZlMLOFgajQkxqQ1TN-27" target="HWxZlMLOFgajQkxqQ1TN-1">
          <mxGeometry width="50" height="50" relative="1" as="geometry">
            <mxPoint x="340" y="410" as="sourcePoint" />
            <mxPoint x="390" y="360" as="targetPoint" />
          </mxGeometry>
        </mxCell>
        <mxCell id="HWxZlMLOFgajQkxqQ1TN-27" value="" style="rhombus;whiteSpace=wrap;html=1;fontSize=18;fillColor=#000000;" vertex="1" parent="WIyWlLk6GJQsqaUBKTNV-1">
          <mxGeometry x="330" y="310" width="20" height="20" as="geometry" />
        </mxCell>
        <mxCell id="HWxZlMLOFgajQkxqQ1TN-28" value="" style="endArrow=none;html=1;rounded=0;fontSize=18;entryX=0.5;entryY=1;entryDx=0;entryDy=0;exitX=0.5;exitY=0;exitDx=0;exitDy=0;" edge="1" parent="WIyWlLk6GJQsqaUBKTNV-1" source="HWxZlMLOFgajQkxqQ1TN-5" target="HWxZlMLOFgajQkxqQ1TN-27">
          <mxGeometry width="50" height="50" relative="1" as="geometry">
            <mxPoint x="340" y="410" as="sourcePoint" />
            <mxPoint x="340" y="310" as="targetPoint" />
          </mxGeometry>
        </mxCell>
        <mxCell id="HWxZlMLOFgajQkxqQ1TN-29" value="" style="endArrow=none;html=1;rounded=0;fontSize=18;entryX=0.5;entryY=1;entryDx=0;entryDy=0;exitX=0.5;exitY=0;exitDx=0;exitDy=0;" edge="1" parent="WIyWlLk6GJQsqaUBKTNV-1" source="HWxZlMLOFgajQkxqQ1TN-30" target="HWxZlMLOFgajQkxqQ1TN-4">
          <mxGeometry width="50" height="50" relative="1" as="geometry">
            <mxPoint x="280" y="240" as="sourcePoint" />
            <mxPoint x="330" y="190" as="targetPoint" />
          </mxGeometry>
        </mxCell>
        <mxCell id="HWxZlMLOFgajQkxqQ1TN-30" value="" style="rhombus;whiteSpace=wrap;html=1;fontSize=18;fillColor=#000000;" vertex="1" parent="WIyWlLk6GJQsqaUBKTNV-1">
          <mxGeometry x="330" y="230" width="20" height="20" as="geometry" />
        </mxCell>
        <mxCell id="HWxZlMLOFgajQkxqQ1TN-31" value="" style="endArrow=none;html=1;rounded=0;fontSize=18;entryX=0;entryY=0.5;entryDx=0;entryDy=0;" edge="1" parent="WIyWlLk6GJQsqaUBKTNV-1" target="HWxZlMLOFgajQkxqQ1TN-5">
          <mxGeometry width="50" height="50" relative="1" as="geometry">
            <mxPoint x="70" y="450" as="sourcePoint" />
            <mxPoint x="170" y="360" as="targetPoint" />
          </mxGeometry>
        </mxCell>
        <mxCell id="HWxZlMLOFgajQkxqQ1TN-33" value="" style="endArrow=classic;html=1;rounded=0;fontSize=18;entryX=0.5;entryY=1;entryDx=0;entryDy=0;" edge="1" parent="WIyWlLk6GJQsqaUBKTNV-1" target="HWxZlMLOFgajQkxqQ1TN-3">
          <mxGeometry width="50" height="50" relative="1" as="geometry">
            <mxPoint x="70" y="450" as="sourcePoint" />
            <mxPoint x="330" y="190" as="targetPoint" />
          </mxGeometry>
        </mxCell>
        <mxCell id="HWxZlMLOFgajQkxqQ1TN-43" style="edgeStyle=orthogonalEdgeStyle;rounded=0;orthogonalLoop=1;jettySize=auto;html=1;exitX=0.5;exitY=1;exitDx=0;exitDy=0;fontSize=18;" edge="1" parent="WIyWlLk6GJQsqaUBKTNV-1" source="HWxZlMLOFgajQkxqQ1TN-34">
          <mxGeometry relative="1" as="geometry">
            <mxPoint x="400" y="450" as="targetPoint" />
            <Array as="points">
              <mxPoint x="590" y="450" />
            </Array>
          </mxGeometry>
        </mxCell>
        <mxCell id="HWxZlMLOFgajQkxqQ1TN-34" value="" style="rounded=1;whiteSpace=wrap;html=1;fontSize=18;fillColor=#FFFFFF;arcSize=50;" vertex="1" parent="WIyWlLk6GJQsqaUBKTNV-1">
          <mxGeometry x="530" y="250" width="120" height="60" as="geometry" />
        </mxCell>
        <mxCell id="HWxZlMLOFgajQkxqQ1TN-35" value="Employee" style="text;html=1;strokeColor=none;fillColor=none;align=center;verticalAlign=middle;whiteSpace=wrap;rounded=0;fontSize=18;" vertex="1" parent="WIyWlLk6GJQsqaUBKTNV-1">
          <mxGeometry x="560" y="265" width="60" height="30" as="geometry" />
        </mxCell>
        <mxCell id="HWxZlMLOFgajQkxqQ1TN-36" value="" style="endArrow=none;html=1;rounded=0;fontSize=18;entryX=0;entryY=0.5;entryDx=0;entryDy=0;exitX=1;exitY=0.5;exitDx=0;exitDy=0;" edge="1" parent="WIyWlLk6GJQsqaUBKTNV-1" source="HWxZlMLOFgajQkxqQ1TN-1" target="HWxZlMLOFgajQkxqQ1TN-34">
          <mxGeometry width="50" height="50" relative="1" as="geometry">
            <mxPoint x="280" y="240" as="sourcePoint" />
            <mxPoint x="330" y="190" as="targetPoint" />
          </mxGeometry>
        </mxCell>
        <mxCell id="HWxZlMLOFgajQkxqQ1TN-38" value="" style="endArrow=none;html=1;rounded=0;fontSize=18;entryX=0.5;entryY=1;entryDx=0;entryDy=0;startArrow=none;" edge="1" source="HWxZlMLOFgajQkxqQ1TN-39" parent="WIyWlLk6GJQsqaUBKTNV-1">
          <mxGeometry width="50" height="50" relative="1" as="geometry">
            <mxPoint x="430" y="370" as="sourcePoint" />
            <mxPoint x="430" y="270" as="targetPoint" />
          </mxGeometry>
        </mxCell>
        <mxCell id="HWxZlMLOFgajQkxqQ1TN-39" value="" style="rhombus;whiteSpace=wrap;html=1;fontSize=18;fillColor=#000000;" vertex="1" parent="WIyWlLk6GJQsqaUBKTNV-1">
          <mxGeometry x="420" y="270" width="20" height="20" as="geometry" />
        </mxCell>
        <mxCell id="HWxZlMLOFgajQkxqQ1TN-47" value="" style="rounded=0;whiteSpace=wrap;html=1;fontSize=18;fillColor=#FFFFFF;" vertex="1" parent="WIyWlLk6GJQsqaUBKTNV-1">
          <mxGeometry x="530" y="160" width="120" height="40" as="geometry" />
        </mxCell>
        <mxCell id="HWxZlMLOFgajQkxqQ1TN-51" value="" style="edgeStyle=orthogonalEdgeStyle;rounded=0;orthogonalLoop=1;jettySize=auto;html=1;fontSize=18;entryX=1;entryY=0.5;entryDx=0;entryDy=0;" edge="1" parent="WIyWlLk6GJQsqaUBKTNV-1" source="HWxZlMLOFgajQkxqQ1TN-48" target="HWxZlMLOFgajQkxqQ1TN-34">
          <mxGeometry relative="1" as="geometry">
            <Array as="points" />
          </mxGeometry>
        </mxCell>
        <mxCell id="HWxZlMLOFgajQkxqQ1TN-48" value="" style="rounded=0;whiteSpace=wrap;html=1;fontSize=18;fillColor=#FFFFFF;" vertex="1" parent="WIyWlLk6GJQsqaUBKTNV-1">
          <mxGeometry x="700" y="260" width="120" height="40" as="geometry" />
        </mxCell>
        <mxCell id="HWxZlMLOFgajQkxqQ1TN-52" style="edgeStyle=orthogonalEdgeStyle;rounded=0;orthogonalLoop=1;jettySize=auto;html=1;exitX=0.5;exitY=1;exitDx=0;exitDy=0;fontSize=18;" edge="1" parent="WIyWlLk6GJQsqaUBKTNV-1" source="HWxZlMLOFgajQkxqQ1TN-49" target="HWxZlMLOFgajQkxqQ1TN-34">
          <mxGeometry relative="1" as="geometry" />
        </mxCell>
        <mxCell id="HWxZlMLOFgajQkxqQ1TN-49" value="Professor" style="text;html=1;strokeColor=none;fillColor=none;align=center;verticalAlign=middle;whiteSpace=wrap;rounded=0;fontSize=18;" vertex="1" parent="WIyWlLk6GJQsqaUBKTNV-1">
          <mxGeometry x="560" y="165" width="60" height="30" as="geometry" />
        </mxCell>
        <mxCell id="HWxZlMLOFgajQkxqQ1TN-50" value="Officer" style="text;html=1;strokeColor=none;fillColor=none;align=center;verticalAlign=middle;whiteSpace=wrap;rounded=0;fontSize=18;" vertex="1" parent="WIyWlLk6GJQsqaUBKTNV-1">
          <mxGeometry x="730" y="265" width="60" height="30" as="geometry" />
        </mxCell>
      </root>
    </mxGraphModel>
  </diagram>
</mxfile>
